<?xml version="1.0" encoding="UTF-8"?>
<svg xmlns="http://www.w3.org/2000/svg" xmlns:xlink="http://www.w3.org/1999/xlink" version="1.1" id="Layer_1" x="0px" y="0px" viewBox="0 0 512.002 512.002" style="enable-background:new 0 0 512.002 512.002;" xml:space="preserve" width="512" height="512">
<g>
	<path style="fill-rule:evenodd;clip-rule:evenodd;fill:#B2F0FB;" d="M319.718,100.515c35.776,0,64.778,29.002,64.778,64.778h85.321&#10;&#9;&#9;c17.701,0,32.184-14.483,32.184-32.184c0-17.702-14.483-32.184-32.184-32.184c0-28.797-28.396-48.623-55.195-39.45&#10;&#9;&#9;c-11.777-15.16-30.179-24.918-50.862-24.918c-35.55,0-64.369,28.819-64.369,64.368v2.845&#10;&#9;&#9;C305.784,101.658,312.618,100.515,319.718,100.515z"/>
	<g>
		
			<path style="fill-rule:evenodd;clip-rule:evenodd;fill:none;stroke:#020288;stroke-width:20.0001;stroke-linecap:round;stroke-linejoin:round;stroke-miterlimit:22.9256;" d="&#10;&#9;&#9;&#9;M223.684,136.262c-5.007-3.437-11.056-5.454-17.554-5.454c0-34.413-27.897-62.31-62.31-62.31&#10;&#9;&#9;&#9;c-20.022,0-37.836,9.445-49.236,24.121c-25.942-8.88-53.43,10.313-53.43,38.189C24.02,130.807,10,144.827,10,161.962&#10;&#9;&#9;&#9;c0,17.135,14.02,31.155,31.155,31.155h77.642"/>
		
			<path style="fill-rule:evenodd;clip-rule:evenodd;fill:none;stroke:#020288;stroke-width:20.0001;stroke-linecap:round;stroke-linejoin:round;stroke-miterlimit:22.9256;" d="&#10;&#9;&#9;&#9;M266.483,230.071h118.014c17.814,0,32.389-14.575,32.389-32.389c0-17.814-14.575-32.389-32.389-32.389&#10;&#9;&#9;&#9;c0-35.776-29.002-64.778-64.778-64.778c-20.815,0-39.335,9.82-51.186,25.077c-26.97-9.231-55.546,10.721-55.546,39.701h-59.751&#10;&#9;&#9;&#9;c-17.814,0-32.389,14.575-32.389,32.389c0,17.814,14.575,32.389,32.389,32.389h43.087"/>
	</g>
	<path style="fill-rule:evenodd;clip-rule:evenodd;fill:#B2F0FB;" d="M97.121,305.036c0,3.237,0.396,6.381,1.138,9.389&#10;&#9;&#9;c9.033-3.636,18.9-5.638,29.235-5.638c25.169,0,47.563,11.874,61.893,30.322c19.875-6.803,40.471-0.499,53.528,13.395&#10;&#9;&#9;c6.188-4.456,13.765-7.089,21.928-7.089c0-36.125,25.424-66.313,59.356-73.645c-5.205-16.277-14.723-30.626-27.211-41.7&#10;&#9;&#9;c-16.589-14.711-38.418-23.644-62.334-23.644c-23.917,0-45.745,8.933-62.334,23.644c-11.341,10.057-20.232,22.814-25.669,37.263&#10;&#9;&#9;c-3.318-0.915-6.812-1.406-10.421-1.406C114.63,265.928,97.121,283.437,97.121,305.036z"/>
	<g>
		
			<path style="fill-rule:evenodd;clip-rule:evenodd;fill:none;stroke:#020288;stroke-width:20.0001;stroke-linecap:round;stroke-linejoin:round;stroke-miterlimit:22.9256;" d="&#10;&#9;&#9;&#9;M243.941,351.791c5.991-4.022,13.184-6.375,20.901-6.375c0-41.611,33.733-75.345,75.345-75.345&#10;&#9;&#9;&#9;c24.21,0,45.751,11.421,59.535,29.167c31.369-10.737,64.607,12.47,64.607,46.177c20.72,0,37.673,16.952,37.673,37.672&#10;&#9;&#9;&#9;c0,20.72-16.953,37.672-37.673,37.672h-93.506"/>
		
			<path style="fill-rule:evenodd;clip-rule:evenodd;fill:none;stroke:#020288;stroke-width:20.0001;stroke-linecap:round;stroke-linejoin:round;stroke-miterlimit:22.9256;" d="&#10;&#9;&#9;&#9;M49.164,465.445c-21.54,0-39.164-17.624-39.164-39.164c0-21.541,17.624-39.165,39.164-39.165&#10;&#9;&#9;&#9;c0-43.259,35.069-78.329,78.329-78.329c25.169,0,47.563,11.874,61.893,30.322c32.612-11.162,67.166,12.964,67.166,48.006h72.25&#10;&#9;&#9;&#9;c21.541,0,39.165,17.624,39.165,39.164v0c0,21.54-17.624,39.164-39.165,39.164C235.59,465.445,142.377,465.445,49.164,465.445z"/>
		<g>
			
				<path style="fill-rule:evenodd;clip-rule:evenodd;fill:none;stroke:#020288;stroke-width:19.9998;stroke-linecap:round;stroke-linejoin:round;stroke-miterlimit:22.9256;" d="&#10;&#9;&#9;&#9;&#9;M162.644,380.859c0.055,0,0.109,0,0.163,0c17.958,0,32.516,14.558,32.516,32.516"/>
		</g>
	</g>
</g>















</svg>
