<svg clip-rule="evenodd" fill-rule="evenodd" stroke-linecap="round" stroke-linejoin="round" stroke-miterlimit="1" viewBox="0 0 64 64" xmlns="http://www.w3.org/2000/svg" xmlns:serif="http://www.serif.com/"><g fill="none" stroke-width="2"><path d="m18.099 27.999c-.066-.658-.099-1.324-.099-1.999 0-11.038 8.962-20 20-20 1.596 0 3.149.187 4.638.541-4.794 1.507-8.274 5.989-8.274 11.277 0 6.523 5.295 11.818 11.818 11.818 5.288 0 9.77-3.48 11.277-8.274.354 1.489.541 3.042.541 4.638 0 4.59-1.55 8.821-4.154 12.198" stroke="#e5f20d"/><path d="m52.821 60c3.962 0 7.179-3.137 7.179-7s-3.217-7-7.179-7c-.121 0-.241.003-.361.009-1.273-4.833-5.775-8.409-11.127-8.409-2.363 0-4.561.698-6.388 1.893-1.571-4.362-5.835-7.493-10.842-7.493-4.283 0-8.021 2.289-9.996 5.68-5.69.666-10.107 5.394-10.107 11.12 0 6.181 5.147 11.2 11.487 11.2" stroke="#738c88"/><g stroke="#0dcaf2"><path d="m26 46s-4 7-4 10c0 2.208 1.792 4 4 4s4-1.792 4-4c0-3-4-10-4-10z"/><path d="m42 48s-3 4.9-3 7c0 1.656 1.344 3 3 3s3-1.344 3-3c0-2.1-3-7-3-7z"/></g></g></svg>