<svg xmlns="http://www.w3.org/2000/svg" version="1.1" xmlns:xlink="http://www.w3.org/1999/xlink" width="512" height="512" x="0" y="0" viewBox="0 0 1707 1707" style="enable-background:new 0 0 512 512" xml:space="preserve" fill-rule="evenodd" class=""><g><path d="M1397 900H310C187 900 87 800 87 677c0-103 71-192 166-215 0-108 76-199 178-218C454 6 757-91 912 104c104-44 237 16 258 137 133-28 261 77 263 215 106 18 187 111 187 221 0 123-100 223-223 223zm-320 700c-27 0-41-32-22-51l36-36c-34 0-81 9-81-30 0-37 45-30 77-30-21-21-58-48-32-74 27-27 53 11 75 32 0-32-8-78 30-78s30 47 30 81c23-23 51-62 78-35 26 26-11 53-32 74 32 0 77-8 77 30 0 39-47 30-81 30 24 24 63 51 36 78-28 28-56-13-78-35 0 34 8 81-30 81s-30-46-30-78c-18 18-35 41-53 41zm-637 70c-27 0-40-32-21-51l33-32c-31 0-75 7-75-30 0-38 45-30 78-30-23-23-63-51-36-78s53 11 78 35c0-34-8-81 30-81s30 47 30 81c24-24 51-62 78-35s-13 55-37 78c33 0 79-8 79 30 0 37-45 30-75 30 22 21 59 47 33 74-27 28-56-13-78-35 0 34 8 81-30 81s-30-47-30-81c-19 19-38 44-57 44zm823-437c-26 0-40-32-21-51l36-35c-35 0-81 8-81-30 0-39 46-30 80-30-23-24-62-51-35-78s54 12 78 36c0-33-8-78 30-78s30 45 30 77c23-23 51-62 78-35s-12 54-36 78c32 0 78-8 78 30s-46 30-78 30c24 23 63 51 36 78-28 27-56-14-78-36 0 32 8 78-30 78s-30-46-30-78c-19 19-38 44-57 44zm-480 27c-26 0-40-32-21-51l36-36c-35 0-81 9-81-30 0-37 45-30 77-30-21-21-58-48-32-74 27-27 53 11 75 32 0-32-8-78 30-78s30 47 30 81c23-23 50-62 77-35 27 26-10 53-32 74 32 0 78-8 78 30 0 39-47 30-81 30 23 24 62 51 35 78-27 28-56-13-77-35 0 34 8 81-30 81s-30-46-30-78c-19 18-35 41-54 41zm-513-63c-27 0-40-33-21-52l33-32c-31 0-75 8-75-30s45-30 78-30c-23-23-63-50-36-77s53 11 78 34c0-33-8-80 30-80s30 47 30 80c24-23 51-61 78-34s-13 54-37 77c35 0 82-8 82 30s-46 30-78 30c22 22 59 48 33 75-27 27-56-13-78-35 0 34 8 80-30 80s-30-46-30-80c-19 19-38 44-57 44z" fill="#2aa8d0" opacity="1" data-original="#000000" class=""></path></g></svg>