<svg xmlns="http://www.w3.org/2000/svg" version="1.1" xmlns:xlink="http://www.w3.org/1999/xlink" width="512" height="512" x="0" y="0" viewBox="0 0 512 512" style="enable-background:new 0 0 512 512" xml:space="preserve" class=""><g><path d="m472.638 201.108-10.989-1.155-2.155-10.837c-6.421-32.29-35.017-55.726-67.993-55.726h-13.336l-1.561-13.244C369.407 59.103 317.559 13.071 256 13.071c-56.353 0-104.557 38.576-117.828 91.927 36.113 6.555 66.166 32.807 77.174 68.157C247.719 181.359 271 210.53 271 244.894c0 16.482-5.419 31.719-14.561 44.035h211.526c24.281 0 44.035-19.754 44.035-44.035 0-22.604-16.922-41.428-39.362-43.786z" fill="#2aa8d0" opacity="1" data-original="#000000" class=""></path><path d="M241 244.894c0-22.604-16.922-41.429-39.362-43.787l-10.989-1.155-2.155-10.837c-6.421-32.289-35.016-55.725-67.991-55.726-32.979.001-61.574 23.437-67.995 55.726l-2.155 10.837-10.989 1.155C16.922 203.466 0 222.29 0 244.894c0 24.281 19.754 44.035 44.035 44.035h152.93c24.281 0 44.035-19.753 44.035-44.035zM165.301 333.929l-25.98-15L122 348.93l-17.321-30.001-25.98 15 17.32 30H61.378v30h34.641l-17.32 30 25.98 15 17.321-30 17.321 30 25.98-15-17.32-30h34.641v-30h-34.641zM433.301 333.929l-25.98-15L390 348.93l-17.321-30.001-25.98 15 17.32 30h-34.641v30h34.641l-17.32 30 25.98 15 17.321-30 17.321 30 25.98-15-17.32-30h34.641v-30h-34.641zM299.301 393.929l-25.98-15L256 408.93l-17.321-30.001-25.98 15 17.32 30h-34.641v30h34.641l-17.32 30 25.98 15 17.321-30 17.321 30 25.98-15-17.32-30h34.641v-30h-34.641z" fill="#2aa8d0" opacity="1" data-original="#000000" class=""></path></g></svg>