<svg id="Capa_1" enable-background="new 0 0 512 512" height="512" viewBox="0 0 512 512" width="512" xmlns="http://www.w3.org/2000/svg"><g><path d="m413.544 147.294h-10.302c-5.605 0-10.148-4.544-10.148-10.148v-34.892c0-56.473-35.479-101.224-91.952-101.224-6.775 0-13.396-.371-19.803.886-32.791 6.436-59.96 28.548-73.39 58.209-2.059 4.547-7.217 6.784-11.95 5.196-10.218-3.429-21.156-5.29-32.529-5.29-52.419 0-95.618 39.444-101.551 90.27-.361 3.089-2.219 5.835-4.966 7.293-28.049 14.887-47.154 44.39-47.154 78.358 0 48.965 39.694 88.658 88.659 88.658h304.785c48.965 0 88.659-39.694 88.659-88.658-.002-48.964-29.394-88.658-78.358-88.658z" fill="#988393"/><g><path d="m413.544 147.294c-5.605 0-10.148-4.544-10.148-10.148v-34.892c0-56.473-45.781-102.254-102.255-102.254-6.776 0-13.393.671-19.8 1.928 46.982 9.234 82.424 50.638 82.424 100.326v34.892c0 5.605 4.543 10.148 10.148 10.148 48.965 0 88.658 39.694 88.658 88.658 0 48.965-39.694 88.658-88.658 88.658h39.63c48.965 0 88.658-39.694 88.658-88.658.001-48.964-39.693-88.658-88.657-88.658z" fill="#806e7b"/></g><path d="m352.907 274.586h-71.661c-2.372 0-4.438 1.62-5.003 3.924l-28.379 115.719c-.796 3.245 1.661 6.378 5.003 6.378h29.453c2.845 0 5.151 2.306 5.151 5.151v63.023l1.01 11.35c0 4.961 6.325 7.055 9.285 3.073l66.964-100.343c2.526-3.398.1-8.224-4.134-8.224h-33.242c-3.661 0-6.153-3.711-4.768-7.1l35.09-85.851c1.384-3.388-1.108-7.1-4.769-7.1z" fill="#ffe07d"/><path d="m344.283 281.686-35.09 85.851c-1.385 3.388 1.107 7.1 4.768 7.1h23.694c-3.661 0-6.153-3.711-4.768-7.1l35.09-85.851c1.385-3.388-1.107-7.1-4.768-7.1h-23.694c3.661 0 6.153 3.712 4.768 7.1z" fill="#ffd064"/><path d="m370.897 374.637h-23.694c4.234 0 6.66 4.825 4.134 8.224l-63.866 85.921v16.312c0 4.961 6.325 7.055 9.285 3.073l78.275-105.306c2.526-3.399.101-8.224-4.134-8.224z" fill="#ffd064"/><path d="m204.89 363.977h-44.662c-2.372 0-4.438 1.62-5.003 3.924l-19.132 78.011c-.796 3.245 1.661 6.378 5.003 6.378h17.134c2.845 0 5.151 2.306 5.151 5.151v41.402l.649 4.901c0 4.961 6.325 7.055 9.285 3.073l40.326-64.502c2.526-3.398.1-8.224-4.134-8.224h-17.935c-3.661 0-6.153-3.711-4.768-7.1l22.854-55.914c1.385-3.389-1.107-7.1-4.768-7.1z" fill="#ffe07d"/><path d="m201.416 371.077-22.854 55.914c-1.385 3.389 1.107 7.1 4.768 7.1h17.513c-3.661 0-6.153-3.711-4.768-7.1l22.854-55.914c1.385-3.389-1.107-7.1-4.768-7.1h-17.513c3.661 0 6.153 3.711 4.768 7.1z" fill="#ffd064"/><path d="m218.778 434.09h-17.513c4.234 0 6.66 4.825 4.134 8.224l-42.018 56.528v7.997c0 4.961 6.325 7.054 9.285 3.073l50.247-67.598c2.525-3.398.1-8.224-4.135-8.224z" fill="#ffd064"/><path d="m89.13 407.949-9.942-33.003c-2.367-4.1-8.284-4.1-10.651 0l-5.491 7.451-14.753 25.552c-9.422 16.319-1.268 36.02 14.747 42.278 3.302 1.29 6.938.979 10.823.979 22.728 0 26.631-23.574 15.267-43.257z" fill="#a2dbff"/><path d="m99.432 407.949-20.244-35.064c-2.367-4.1-8.284-4.1-10.651 0l-5.491 9.511 14.753 25.552c9.421 16.318 1.261 36.003-14.753 42.263 3.302 1.291 6.931 2.024 10.817 2.024 22.728.002 36.933-24.603 25.569-44.286z" fill="#63cbff"/><path d="m453.405 407.949-9.942-33.003c-2.367-4.1-8.284-4.1-10.651 0l-5.491 7.451-14.753 25.552c-9.422 16.319-1.268 36.02 14.747 42.278 3.302 1.29 6.938.979 10.823.979 22.728 0 26.631-23.574 15.267-43.257z" fill="#a2dbff"/><path d="m463.707 407.949-20.244-35.064c-2.367-4.1-8.284-4.1-10.651 0l-5.491 9.511 14.753 25.552c9.421 16.318 1.261 36.003-14.752 42.263 3.302 1.291 6.931 2.024 10.817 2.024 22.727.002 36.932-24.603 25.568-44.286z" fill="#63cbff"/></g></svg>